<?xml version="1.0" encoding="UTF-8" standalone="no"?>
<!-- Created with Inkscape (http://www.inkscape.org/) -->
<svg
   xmlns:dc="http://purl.org/dc/elements/1.1/"
   xmlns:cc="http://creativecommons.org/ns#"
   xmlns:rdf="http://www.w3.org/1999/02/22-rdf-syntax-ns#"
   xmlns:svg="http://www.w3.org/2000/svg"
   xmlns="http://www.w3.org/2000/svg"
   xmlns:sodipodi="http://sodipodi.sourceforge.net/DTD/sodipodi-0.dtd"
   xmlns:inkscape="http://www.inkscape.org/namespaces/inkscape"
   version="1.0"
   width="588.66876"
   height="677.62628"
   id="svg2"
   sodipodi:version="0.32"
   inkscape:version="0.46dev+devel"
   sodipodi:docname="Ryan_Taylor_Green_Tick_ok.svg"
   inkscape:output_extension="org.inkscape.output.svg.inkscape">
  <metadata
     id="metadata7">
    <rdf:RDF>
      <cc:Work
         rdf:about="">
        <dc:format>image/svg+xml</dc:format>
        <dc:type
           rdf:resource="http://purl.org/dc/dcmitype/StillImage" />
      </cc:Work>
    </rdf:RDF>
  </metadata>
  <sodipodi:namedview
     inkscape:window-height="643"
     inkscape:window-width="640"
     inkscape:pageshadow="2"
     inkscape:pageopacity="0.0"
     guidetolerance="10.0"
     gridtolerance="10.0"
     objecttolerance="10.0"
     borderopacity="1.0"
     bordercolor="#666666"
     pagecolor="#ffffff"
     id="base"
     showgrid="false"
     inkscape:zoom="0.41050506"
     inkscape:cx="372.04724"
     inkscape:cy="526.18109"
     inkscape:window-x="66"
     inkscape:window-y="87"
     inkscape:current-layer="svg2" />
  <defs
     id="defs4" />
  <g
     id="layer1"
     transform="translate(-100.70612,-203.06678)">
    <path
       d="M 265.69169,544.93553 C 265.70615,556.21413 268.58563,567.17067 270.98427,578.10677 C 279.14756,612.99053 291.66418,646.52496 305.06533,679.67227 C 317.79649,709.92827 330.5852,740.25236 351.56794,765.5081 C 382.79868,721.10558 152.31087,912.56779 207.00946,833.78718 C 218.93876,813.05511 232.10868,793.10443 244.88951,772.8975 C 283.39524,710.81974 323.35525,649.66601 362.83262,588.20485 C 423.96198,494.31365 484.62025,399.96573 533.78055,299.15193 C 538.34441,288.49479 542.90827,277.83765 547.47212,267.18051 L 689.3749,203.06678 C 682.55237,214.89372 675.72983,226.72065 668.9073,238.54759 C 611.28673,335.94872 550.9972,431.75217 494.51902,529.82749 C 463.20435,586.45217 432.51217,643.44123 404.45933,701.7686 C 394.58572,721.21735 383.86358,740.12828 373.39316,759.24052 C 346.15694,822.22797 231.99978,928.32019 194.16642,856.87285 C 183.45215,824.84795 172.62416,792.78127 158.1055,762.22462 C 143.36603,729.84487 127.73353,697.88826 112.68915,665.64972 C 107.68241,654.92072 104.16529,643.76984 100.70612,632.46142 L 265.69169,544.93553 z"
       style="opacity:0.85987262;fill:#44aa00;fill-opacity:1"
       id="path3161" />
  </g>
</svg>
